<svg width="578" height="578" viewBox="0 0 578 578" fill="none" xmlns="http://www.w3.org/2000/svg">
<circle opacity="0.5" cx="289" cy="289" r="289" fill="#F3F4F9"/>
<path d="M156 158C156 151.925 160.925 147 167 147H279.886C284.312 147 288.307 149.653 290.024 153.733L298.166 173.079C299.883 177.158 303.879 179.811 308.305 179.811H435C441.075 179.811 446 184.736 446 190.811V359C446 365.075 441.075 370 435 370H167C160.925 370 156 365.075 156 359L156 158Z" fill="#E6E8F1"/>
<path d="M445.5 190.811V359C445.5 364.799 440.799 369.5 435 369.5H167C161.201 369.5 156.5 364.799 156.5 359V158C156.5 152.201 161.201 147.5 167 147.5H279.886C284.111 147.5 287.924 150.033 289.563 153.927L297.705 173.273C299.501 177.538 303.677 180.311 308.305 180.311H435C440.799 180.311 445.5 185.012 445.5 190.811Z" stroke="#7B829E" stroke-opacity="0.58"/>
<path d="M427.5 204.811V373C427.5 378.247 423.247 382.5 418 382.5H150C144.753 382.5 140.5 378.247 140.5 373V172C140.5 166.753 144.753 162.5 150 162.5H262.886C266.708 162.5 270.159 164.791 271.642 168.315L279.784 187.66C281.735 192.297 286.275 195.311 291.305 195.311H418C423.247 195.311 427.5 199.565 427.5 204.811Z" stroke="#7B829E" stroke-opacity="0.58" stroke-width="3"/>
<path d="M169.816 435.36H174.832V430.92H171.496V428.856H174.472V422.448H171.4V420.384H187.48V422.448H184.384V428.856H187.408V430.92H184.048V435.36H189.136V437.448H169.816V435.36ZM177.064 428.856H181.816V422.448H177.064V428.856ZM177.4 435.36H181.48V430.92H177.4V435.36Z" fill="#787B8D"/>
<path d="M195.665 420.312H198.257V423.72C198.257 427.656 200.321 431.568 203.729 433.08L202.217 435.168C199.769 434.016 197.993 431.736 197.009 428.928C196.049 431.928 194.201 434.4 191.633 435.624L190.097 433.488C193.553 431.928 195.665 427.824 195.665 423.72V420.312ZM205.289 439.968V418.56H207.881V439.968H205.289Z" fill="#787B8D"/>
<path d="M224.922 418.536H227.514V423.336H230.49V425.448H227.514V430.176H224.922V418.536ZM210.834 422.256V420.288H215.85V418.392H218.418V420.288H223.41V422.256H210.834ZM211.962 426.48C211.962 424.296 214.002 422.952 217.122 422.952C220.242 422.952 222.33 424.296 222.33 426.48C222.33 428.616 220.242 429.936 217.122 429.936C214.002 429.936 211.962 428.616 211.962 426.48ZM213.666 433.032V431.136H227.514V436.248H216.258V437.808H228.186V439.752H213.714V434.472H224.946V433.032H213.666ZM214.41 426.48C214.41 427.512 215.466 428.112 217.122 428.112C218.778 428.112 219.834 427.512 219.834 426.48C219.834 425.4 218.778 424.8 217.122 424.8C215.466 424.8 214.41 425.4 214.41 426.48Z" fill="#787B8D"/>
<path d="M252.149 418.584H254.597V439.92H252.149V418.584ZM237.053 435.024V421.08H245.141V423.144H239.597V432.888C242.117 432.864 243.917 432.72 245.981 432.288L246.221 434.424C243.797 434.928 241.709 435.024 238.493 435.024H237.053ZM243.677 428.616V426.504H247.781V419.016H250.181V438.912H247.781V428.616H243.677Z" fill="#787B8D"/>
<path d="M271.854 418.56H274.446V439.968H271.854V418.56ZM257.526 427.656C257.526 423.048 259.83 420.12 263.046 420.12C266.262 420.12 268.566 423.048 268.566 427.656C268.566 432.288 266.262 435.24 263.046 435.24C259.83 435.24 257.526 432.288 257.526 427.656ZM260.022 427.656C260.022 430.968 261.246 432.888 263.046 432.888C264.846 432.888 266.094 430.968 266.094 427.656C266.094 424.392 264.846 422.472 263.046 422.472C261.246 422.472 260.022 424.392 260.022 427.656Z" fill="#787B8D"/>
<path d="M292.542 418.56H295.11V439.968H292.542V428.424H288.534V426.336H292.542V418.56ZM278.31 435V420.432H288.174V422.544H280.878V426.384H287.358V428.424H280.878V432.912C284.166 432.888 286.566 432.768 289.326 432.312L289.566 434.4C286.494 434.904 283.806 435 279.99 435H278.31Z" fill="#787B8D"/>
<path d="M311.839 418.56H314.431V426.936H317.599V429.072H314.431V439.896H311.839V418.56ZM297.775 434.088C302.935 431.472 305.719 427.8 306.223 422.904H298.879V420.816H308.839C308.839 427.08 306.247 432.552 299.239 436.056L297.775 434.088Z" fill="#787B8D"/>
<path d="M325.795 431.088H328.195V433.416H331.027V431.088H333.403V437.904C335.923 436.848 337.075 434.664 337.075 432.6V430.944H339.619V432.6C339.619 434.832 340.771 436.992 343.339 437.928L342.067 439.848C340.195 439.128 338.995 437.832 338.323 436.224C337.627 437.808 336.403 439.128 334.627 439.848L333.403 438V439.656H325.795V431.088ZM323.707 424.416C323.707 421.488 326.059 419.448 329.275 419.448C332.059 419.448 334.219 421.008 334.723 423.336H338.563V418.584H341.131V429.864H338.563V425.424H334.747C334.267 427.8 332.083 429.408 329.275 429.408C326.059 429.408 323.707 427.344 323.707 424.416ZM326.179 424.416C326.179 426.168 327.475 427.296 329.275 427.296C331.075 427.296 332.371 426.168 332.371 424.416C332.371 422.688 331.075 421.584 329.275 421.584C327.475 421.584 326.179 422.688 326.179 424.416ZM328.195 437.712H331.027V435.312H328.195V437.712Z" fill="#787B8D"/>
<path d="M346.219 431.352H348.763V433.464H358.147V431.352H360.691V439.656H346.219V431.352ZM343.891 430.128V428.088H363.163V430.128H343.891ZM344.899 424.872C349.291 424.32 352.219 421.992 352.219 419.592V418.824H354.859V419.592C354.859 421.944 357.811 424.344 362.155 424.872L361.243 426.864C357.715 426.384 354.907 424.8 353.539 422.64C352.195 424.824 349.363 426.384 345.835 426.864L344.899 424.872ZM348.763 437.616H358.147V435.408H348.763V437.616Z" fill="#787B8D"/>
<path d="M379.484 418.584H382.052V439.92H379.484V418.584ZM365.588 434.544V420.624H368.18V432.36C371.132 432.312 374.276 432.072 377.588 431.4L377.9 433.56C374.204 434.304 370.724 434.544 367.46 434.544H365.588Z" fill="#787B8D"/>
<path d="M398.901 418.56H401.493V426.696H404.733V428.832H401.493V439.968H398.901V418.56ZM385.773 434.736V420.6H395.709V422.688H388.341V432.576C391.725 432.552 394.317 432.432 397.197 431.88L397.461 434.04C394.221 434.64 391.341 434.736 387.501 434.736H385.773Z" fill="#787B8D"/>
<path d="M407.325 435.6C408.285 435.6 408.789 436.248 408.789 437.064C408.789 437.904 408.285 438.552 407.325 438.552C406.365 438.552 405.837 437.904 405.837 437.064C405.837 436.248 406.365 435.6 407.325 435.6Z" fill="#787B8D"/>
<path d="M147.54 465.54H146.644V458.638H143.886V457.882H146.644V453.906H147.54V465.54ZM150.13 466.128H149.22V453.696H150.13V466.128ZM140.596 454.62H144.936V455.362H141.478V462.11L143.158 462.068C143.512 462.059 143.984 462.026 144.572 461.97C145.16 461.905 145.584 461.853 145.846 461.816V462.614C145.612 462.651 145.206 462.698 144.628 462.754C144.058 462.81 143.526 462.847 143.032 462.866C142.416 462.894 141.865 462.908 141.38 462.908C140.894 462.908 140.633 462.908 140.596 462.908V454.62Z" fill="#555555"/>
<path d="M152.795 458.75C152.795 456.995 153.131 455.773 153.803 455.082C154.485 454.391 155.152 454.046 155.805 454.046C156.477 454.046 157.145 454.396 157.807 455.096C158.47 455.796 158.801 457.014 158.801 458.75C158.801 460.458 158.475 461.671 157.821 462.39C157.168 463.099 156.496 463.454 155.805 463.454C155.115 463.454 154.438 463.099 153.775 462.39C153.122 461.681 152.795 460.467 152.795 458.75ZM153.677 458.736C153.677 459.781 153.859 460.705 154.223 461.508C154.597 462.301 155.129 462.698 155.819 462.698C156.51 462.698 157.033 462.301 157.387 461.508C157.742 460.705 157.919 459.781 157.919 458.736C157.919 457.709 157.742 456.799 157.387 456.006C157.033 455.203 156.51 454.802 155.819 454.802C155.129 454.802 154.597 455.203 154.223 456.006C153.859 456.799 153.677 457.709 153.677 458.736ZM161.657 453.696H162.567V466.128H161.657V453.696Z" fill="#555555"/>
<path d="M175.159 466.128H174.249V458.764H171.897V457.98H174.249V453.696H175.159V466.128ZM173.199 461.802V462.53C172.76 462.623 172.163 462.717 171.407 462.81C170.651 462.894 169.983 462.95 169.405 462.978C168.658 463.015 167.902 463.039 167.137 463.048C166.381 463.048 165.965 463.048 165.891 463.048V454.396H171.603V455.138H166.787V458.232H171.379V458.988H166.787V462.264C166.833 462.264 167.127 462.264 167.669 462.264C168.219 462.255 168.812 462.236 169.447 462.208C169.997 462.18 170.609 462.133 171.281 462.068C171.962 461.993 172.601 461.905 173.199 461.802Z" fill="#555555"/>
<path d="M183.659 464.084C183.659 463.44 184.042 462.908 184.807 462.488C185.582 462.059 186.679 461.844 188.097 461.844C189.516 461.844 190.603 462.059 191.359 462.488C192.115 462.917 192.493 463.459 192.493 464.112C192.493 464.756 192.111 465.293 191.345 465.722C190.589 466.151 189.502 466.366 188.083 466.366C186.665 466.366 185.573 466.147 184.807 465.708C184.042 465.279 183.659 464.737 183.659 464.084ZM184.611 464.098C184.611 464.593 184.933 464.975 185.577 465.246C186.231 465.517 187.066 465.652 188.083 465.652C189.082 465.652 189.908 465.517 190.561 465.246C191.215 464.975 191.541 464.597 191.541 464.112C191.541 463.589 191.215 463.202 190.561 462.95C189.917 462.689 189.091 462.558 188.083 462.558C187.066 462.558 186.231 462.684 185.577 462.936C184.933 463.188 184.611 463.575 184.611 464.098ZM192.423 461.76H191.527V457.84H189.777V461.326H188.881V453.906H189.777V457.042H191.527V453.696H192.423V461.76ZM186.431 454.62H183.421V453.892H186.431V454.62ZM187.901 456.356H181.993V455.642H187.901V456.356ZM184.947 457.014C185.75 457.014 186.385 457.21 186.851 457.602C187.327 457.985 187.565 458.465 187.565 459.044C187.565 459.613 187.327 460.094 186.851 460.486C186.375 460.878 185.731 461.074 184.919 461.074C184.126 461.074 183.491 460.878 183.015 460.486C182.539 460.094 182.301 459.613 182.301 459.044C182.301 458.465 182.539 457.985 183.015 457.602C183.491 457.21 184.135 457.014 184.947 457.014ZM184.947 460.388C185.517 460.388 185.946 460.267 186.235 460.024C186.534 459.772 186.683 459.445 186.683 459.044C186.683 458.652 186.534 458.335 186.235 458.092C185.946 457.84 185.517 457.714 184.947 457.714C184.378 457.714 183.939 457.84 183.631 458.092C183.333 458.335 183.183 458.652 183.183 459.044C183.183 459.445 183.333 459.772 183.631 460.024C183.939 460.267 184.378 460.388 184.947 460.388Z" fill="#555555"/>
<path d="M194.809 458.75C194.809 456.995 195.145 455.773 195.817 455.082C196.498 454.391 197.166 454.046 197.819 454.046C198.491 454.046 199.158 454.396 199.821 455.096C200.484 455.796 200.815 457.014 200.815 458.75C200.815 460.458 200.488 461.671 199.835 462.39C199.182 463.099 198.51 463.454 197.819 463.454C197.128 463.454 196.452 463.099 195.789 462.39C195.136 461.681 194.809 460.467 194.809 458.75ZM195.691 458.736C195.691 459.781 195.873 460.705 196.237 461.508C196.61 462.301 197.142 462.698 197.833 462.698C198.524 462.698 199.046 462.301 199.401 461.508C199.756 460.705 199.933 459.781 199.933 458.736C199.933 457.709 199.756 456.799 199.401 456.006C199.046 455.203 198.524 454.802 197.833 454.802C197.142 454.802 196.61 455.203 196.237 456.006C195.873 456.799 195.691 457.709 195.691 458.736ZM203.671 453.696H204.581V466.128H203.671V453.696Z" fill="#555555"/>
<path d="M217.758 462.978H211.962V454.368H212.858V457.7H216.862V454.368H217.758V462.978ZM216.862 462.222V458.456H212.858V462.222H216.862ZM220.432 453.696H221.342V466.128H220.432V453.696Z" fill="#555555"/>
<path d="M233.079 458.988H230.223C230.186 460.603 229.845 461.751 229.201 462.432C228.566 463.113 227.908 463.454 227.227 463.454C226.536 463.454 225.86 463.099 225.197 462.39C224.544 461.681 224.217 460.467 224.217 458.75C224.217 456.995 224.553 455.773 225.225 455.082C225.906 454.391 226.574 454.046 227.227 454.046C227.862 454.046 228.496 454.359 229.131 454.984C229.775 455.609 230.134 456.687 230.209 458.218H233.079V453.696H233.989V466.128H233.079V458.988ZM225.099 458.736C225.099 459.781 225.281 460.705 225.645 461.508C226.018 462.301 226.55 462.698 227.241 462.698C227.932 462.698 228.454 462.301 228.809 461.508C229.164 460.705 229.341 459.781 229.341 458.736C229.341 457.709 229.164 456.799 228.809 456.006C228.454 455.203 227.932 454.802 227.241 454.802C226.55 454.802 226.018 455.203 225.645 456.006C225.281 456.799 225.099 457.709 225.099 458.736Z" fill="#555555"/>
<path d="M236.655 456.958C236.655 456.099 236.958 455.367 237.565 454.76C238.181 454.153 238.96 453.85 239.903 453.85C240.845 453.85 241.62 454.153 242.227 454.76C242.833 455.367 243.137 456.099 243.137 456.958C243.137 457.807 242.833 458.54 242.227 459.156C241.62 459.772 240.845 460.08 239.903 460.08C238.96 460.08 238.181 459.772 237.565 459.156C236.958 458.54 236.655 457.807 236.655 456.958ZM237.593 456.958C237.593 457.602 237.793 458.153 238.195 458.61C238.596 459.067 239.165 459.296 239.903 459.296C240.649 459.296 241.219 459.067 241.611 458.61C242.012 458.153 242.213 457.602 242.213 456.958C242.213 456.305 242.012 455.754 241.611 455.306C241.219 454.858 240.649 454.634 239.903 454.634C239.165 454.634 238.596 454.858 238.195 455.306C237.793 455.754 237.593 456.305 237.593 456.958ZM245.741 453.696H246.637V460.934H245.741V453.696ZM246.063 464.028C246.333 464.383 246.646 464.695 247.001 464.966C247.355 465.237 247.701 465.451 248.037 465.61C247.934 465.675 247.808 465.769 247.659 465.89C247.519 466.011 247.397 466.119 247.295 466.212C247.043 466.053 246.795 465.876 246.553 465.68C246.31 465.484 246.081 465.274 245.867 465.05C245.661 464.826 245.47 464.593 245.293 464.35C245.115 464.117 244.961 463.883 244.831 463.65C244.737 463.846 244.616 464.047 244.467 464.252C244.317 464.467 244.154 464.681 243.977 464.896C243.771 465.129 243.552 465.353 243.319 465.568C243.085 465.783 242.852 465.969 242.619 466.128C242.385 465.951 242.152 465.759 241.919 465.554C241.695 465.349 241.48 465.129 241.275 464.896C241.097 464.7 240.934 464.495 240.785 464.28C240.645 464.065 240.519 463.846 240.407 463.622C240.285 463.865 240.131 464.112 239.945 464.364C239.767 464.616 239.567 464.854 239.343 465.078C239.137 465.302 238.913 465.507 238.671 465.694C238.437 465.89 238.199 466.063 237.957 466.212C237.882 466.137 237.775 466.039 237.635 465.918C237.504 465.806 237.373 465.703 237.243 465.61C237.569 465.442 237.891 465.232 238.209 464.98C238.535 464.728 238.829 464.443 239.091 464.126C239.361 463.799 239.576 463.449 239.735 463.076C239.903 462.703 239.987 462.329 239.987 461.956V461.466H240.855V462.026C240.855 462.315 240.901 462.595 240.995 462.866C241.088 463.127 241.205 463.384 241.345 463.636C241.503 463.907 241.695 464.163 241.919 464.406C242.143 464.649 242.376 464.873 242.619 465.078C242.833 464.901 243.043 464.705 243.249 464.49C243.454 464.275 243.631 464.042 243.781 463.79C243.967 463.501 244.112 463.197 244.215 462.88C244.317 462.553 244.369 462.231 244.369 461.914V461.466H245.237V461.984C245.237 462.348 245.316 462.707 245.475 463.062C245.633 463.407 245.829 463.729 246.063 464.028Z" fill="#555555"/>
<path d="M260.334 459.954H248.7V459.212H260.334V459.954ZM258.724 465.988H250.31V461.116H251.178V462.614H257.842V461.116H258.724V465.988ZM257.842 465.274V463.328H251.178V465.274H257.842ZM254.986 454.102C254.986 454.606 255.135 455.045 255.434 455.418C255.733 455.782 256.111 456.099 256.568 456.37C257.035 456.641 257.543 456.865 258.094 457.042C258.654 457.21 259.177 457.345 259.662 457.448C259.541 457.569 259.429 457.681 259.326 457.784C259.233 457.887 259.135 457.999 259.032 458.12C258.687 458.045 258.323 457.947 257.94 457.826C257.557 457.705 257.179 457.555 256.806 457.378C256.349 457.154 255.915 456.883 255.504 456.566C255.093 456.249 254.767 455.871 254.524 455.432C254.309 455.805 254.039 456.141 253.712 456.44C253.395 456.729 253.035 456.981 252.634 457.196C252.251 457.401 251.836 457.583 251.388 457.742C250.94 457.891 250.478 458.017 250.002 458.12C249.927 458.027 249.829 457.915 249.708 457.784C249.587 457.653 249.47 457.537 249.358 457.434C249.89 457.331 250.427 457.201 250.968 457.042C251.519 456.874 252.009 456.659 252.438 456.398C252.905 456.127 253.287 455.805 253.586 455.432C253.885 455.049 254.034 454.606 254.034 454.102V453.724H254.986V454.102Z" fill="#555555"/>
<path d="M270.223 461.508V462.334C269.822 462.409 269.206 462.507 268.375 462.628C267.554 462.74 266.798 462.81 266.107 462.838C265.277 462.866 264.479 462.88 263.713 462.88C262.948 462.88 262.542 462.88 262.495 462.88V454.298H263.419V462.054L266.149 462.026C266.765 461.998 267.489 461.928 268.319 461.816C269.159 461.704 269.794 461.601 270.223 461.508ZM270.811 453.696H271.721V466.128H270.811V453.696Z" fill="#555555"/>
<path d="M285.783 458.89H283.823V466.142H282.885V453.696H283.823V458.106H285.783V458.89ZM282.353 461.536V462.334C281.756 462.446 280.981 462.567 280.029 462.698C279.077 462.819 278.242 462.88 277.523 462.88H274.835V454.494H280.589V455.25H275.745V462.082L277.355 462.068C278.391 462.059 279.394 461.984 280.365 461.844C281.345 461.704 282.008 461.601 282.353 461.536Z" fill="#555555"/>
<path d="M287.328 464.154H288.742V465.582H287.328V464.154Z" fill="#555555"/>
<path d="M302.989 465.54H302.093V458.638H299.335V457.882H302.093V453.906H302.989V465.54ZM305.579 466.128H304.669V453.696H305.579V466.128ZM296.045 454.62H300.385V455.362H296.927V462.11L298.607 462.068C298.962 462.059 299.433 462.026 300.021 461.97C300.609 461.905 301.034 461.853 301.295 461.816V462.614C301.062 462.651 300.656 462.698 300.077 462.754C299.508 462.81 298.976 462.847 298.481 462.866C297.865 462.894 297.314 462.908 296.829 462.908C296.344 462.908 296.082 462.908 296.045 462.908V454.62Z" fill="#555555"/>
<path d="M308.244 458.75C308.244 456.995 308.58 455.773 309.252 455.082C309.934 454.391 310.601 454.046 311.254 454.046C311.926 454.046 312.594 454.396 313.256 455.096C313.919 455.796 314.25 457.014 314.25 458.75C314.25 460.458 313.924 461.671 313.27 462.39C312.617 463.099 311.945 463.454 311.254 463.454C310.564 463.454 309.887 463.099 309.224 462.39C308.571 461.681 308.244 460.467 308.244 458.75ZM309.126 458.736C309.126 459.781 309.308 460.705 309.672 461.508C310.046 462.301 310.578 462.698 311.268 462.698C311.959 462.698 312.482 462.301 312.836 461.508C313.191 460.705 313.368 459.781 313.368 458.736C313.368 457.709 313.191 456.799 312.836 456.006C312.482 455.203 311.959 454.802 311.268 454.802C310.578 454.802 310.046 455.203 309.672 456.006C309.308 456.799 309.126 457.709 309.126 458.736ZM317.106 453.696H318.016V466.128H317.106V453.696Z" fill="#555555"/>
<path d="M330.608 466.128H329.698V458.764H327.346V457.98H329.698V453.696H330.608V466.128ZM328.648 461.802V462.53C328.209 462.623 327.612 462.717 326.856 462.81C326.1 462.894 325.433 462.95 324.854 462.978C324.107 463.015 323.351 463.039 322.586 463.048C321.83 463.048 321.415 463.048 321.34 463.048V454.396H327.052V455.138H322.236V458.232H326.828V458.988H322.236V462.264C322.283 462.264 322.577 462.264 323.118 462.264C323.669 462.255 324.261 462.236 324.896 462.208C325.447 462.18 326.058 462.133 326.73 462.068C327.411 461.993 328.051 461.905 328.648 461.802Z" fill="#555555"/>
<path d="M339.109 464.084C339.109 463.44 339.491 462.908 340.257 462.488C341.031 462.059 342.128 461.844 343.547 461.844C344.965 461.844 346.053 462.059 346.809 462.488C347.565 462.917 347.943 463.459 347.943 464.112C347.943 464.756 347.56 465.293 346.795 465.722C346.039 466.151 344.951 466.366 343.533 466.366C342.114 466.366 341.022 466.147 340.257 465.708C339.491 465.279 339.109 464.737 339.109 464.084ZM340.061 464.098C340.061 464.593 340.383 464.975 341.027 465.246C341.68 465.517 342.515 465.652 343.533 465.652C344.531 465.652 345.357 465.517 346.011 465.246C346.664 464.975 346.991 464.597 346.991 464.112C346.991 463.589 346.664 463.202 346.011 462.95C345.367 462.689 344.541 462.558 343.533 462.558C342.515 462.558 341.68 462.684 341.027 462.936C340.383 463.188 340.061 463.575 340.061 464.098ZM347.873 461.76H346.977V457.84H345.227V461.326H344.331V453.906H345.227V457.042H346.977V453.696H347.873V461.76ZM341.881 454.62H338.871V453.892H341.881V454.62ZM343.351 456.356H337.443V455.642H343.351V456.356ZM340.397 457.014C341.199 457.014 341.834 457.21 342.301 457.602C342.777 457.985 343.015 458.465 343.015 459.044C343.015 459.613 342.777 460.094 342.301 460.486C341.825 460.878 341.181 461.074 340.369 461.074C339.575 461.074 338.941 460.878 338.465 460.486C337.989 460.094 337.751 459.613 337.751 459.044C337.751 458.465 337.989 457.985 338.465 457.602C338.941 457.21 339.585 457.014 340.397 457.014ZM340.397 460.388C340.966 460.388 341.395 460.267 341.685 460.024C341.983 459.772 342.133 459.445 342.133 459.044C342.133 458.652 341.983 458.335 341.685 458.092C341.395 457.84 340.966 457.714 340.397 457.714C339.827 457.714 339.389 457.84 339.081 458.092C338.782 458.335 338.633 458.652 338.633 459.044C338.633 459.445 338.782 459.772 339.081 460.024C339.389 460.267 339.827 460.388 340.397 460.388Z" fill="#555555"/>
<path d="M350.958 455.838C350.958 455.222 351.336 454.699 352.092 454.27C352.848 453.831 353.931 453.612 355.34 453.612C356.759 453.612 357.841 453.836 358.588 454.284C359.344 454.732 359.722 455.25 359.722 455.838C359.722 456.454 359.344 456.972 358.588 457.392C357.841 457.803 356.759 458.008 355.34 458.008C353.931 458.008 352.848 457.803 352.092 457.392C351.336 456.972 350.958 456.454 350.958 455.838ZM351.924 455.838C351.924 456.295 352.241 456.664 352.876 456.944C353.511 457.224 354.337 457.364 355.354 457.364C356.362 457.364 357.183 457.224 357.818 456.944C358.453 456.664 358.77 456.295 358.77 455.838C358.77 455.371 358.448 454.993 357.804 454.704C357.169 454.415 356.348 454.27 355.34 454.27C354.304 454.27 353.473 454.415 352.848 454.704C352.232 454.993 351.924 455.371 351.924 455.838ZM361.164 459.758H349.53V459.03H361.164V459.758ZM359.848 465.974H351.14V463.076H358.63V461.662H351.14V460.948H359.554V463.776H352.064V465.274H359.848V465.974Z" fill="#555555"/>
<path d="M377.967 461.886H372.661V466.128H371.737V461.886H366.333V461.13H377.967V461.886ZM374.411 454.55H369.861V453.78H374.411V454.55ZM367.761 456.636V455.866H376.539V456.636H372.689C372.726 457.019 372.885 457.359 373.165 457.658C373.454 457.947 373.813 458.199 374.243 458.414C374.681 458.629 375.171 458.811 375.713 458.96C376.254 459.1 376.781 459.212 377.295 459.296C377.173 459.417 377.061 459.534 376.959 459.646C376.865 459.758 376.767 459.875 376.665 459.996C376.301 459.912 375.913 459.819 375.503 459.716C375.092 459.613 374.686 459.483 374.285 459.324C373.874 459.156 373.482 458.941 373.109 458.68C372.735 458.419 372.418 458.092 372.157 457.7C371.923 458.036 371.648 458.325 371.331 458.568C371.013 458.811 370.663 459.025 370.281 459.212C369.898 459.389 369.483 459.539 369.035 459.66C368.596 459.781 368.129 459.893 367.635 459.996C367.56 459.903 367.462 459.786 367.341 459.646C367.219 459.506 367.103 459.385 366.991 459.282C367.551 459.179 368.106 459.058 368.657 458.918C369.207 458.769 369.697 458.591 370.127 458.386C370.547 458.171 370.892 457.924 371.163 457.644C371.433 457.355 371.587 457.019 371.625 456.636H367.761Z" fill="#555555"/>
<path d="M387.954 453.696H388.878V458.876H390.852V459.674H388.878V466.142H387.954V453.696ZM379.918 454.494H385.434C385.369 455.418 385.215 456.295 384.972 457.126C384.73 457.957 384.403 458.731 383.992 459.45C383.535 460.243 382.97 460.976 382.298 461.648C381.626 462.311 380.847 462.917 379.96 463.468C379.867 463.393 379.722 463.286 379.526 463.146C379.34 463.006 379.19 462.903 379.078 462.838C379.993 462.371 380.786 461.83 381.458 461.214C382.14 460.598 382.709 459.917 383.166 459.17C383.512 458.591 383.787 457.975 383.992 457.322C384.207 456.669 384.352 455.978 384.426 455.25H379.918V454.494Z" fill="#555555"/>
<path d="M396.682 454.872H393.378V454.116H396.682V454.872ZM398.054 456.86H392.006V456.09H398.054V456.86ZM392.398 460.752C392.398 459.949 392.654 459.291 393.168 458.778C393.681 458.265 394.311 458.008 395.058 458.008C395.804 458.008 396.43 458.265 396.934 458.778C397.447 459.291 397.704 459.949 397.704 460.752C397.704 461.573 397.447 462.245 396.934 462.768C396.43 463.281 395.804 463.538 395.058 463.538C394.311 463.538 393.681 463.281 393.168 462.768C392.654 462.255 392.398 461.583 392.398 460.752ZM393.224 460.766C393.224 461.382 393.392 461.877 393.728 462.25C394.073 462.614 394.516 462.796 395.058 462.796C395.608 462.796 396.047 462.614 396.374 462.25C396.7 461.877 396.864 461.382 396.864 460.766C396.864 460.159 396.7 459.665 396.374 459.282C396.047 458.899 395.608 458.708 395.058 458.708C394.516 458.708 394.073 458.899 393.728 459.282C393.392 459.665 393.224 460.159 393.224 460.766ZM402.576 466.128H401.68V459.464H399.874V465.54H398.978V453.906H399.874V458.652H401.68V453.696H402.576V466.128Z" fill="#555555"/>
<path d="M415.783 461.578H410.477V466.128H409.553V461.578H404.149V460.822H415.783V461.578ZM405.633 454.928V454.186H414.299V454.928H410.435C410.445 455.469 410.608 455.959 410.925 456.398C411.243 456.827 411.644 457.201 412.129 457.518C412.577 457.807 413.067 458.055 413.599 458.26C414.141 458.465 414.668 458.619 415.181 458.722C415.06 458.843 414.943 458.96 414.831 459.072C414.729 459.175 414.626 459.291 414.523 459.422C414.15 459.329 413.753 459.207 413.333 459.058C412.913 458.899 412.503 458.703 412.101 458.47C411.653 458.218 411.238 457.915 410.855 457.56C410.482 457.205 410.188 456.799 409.973 456.342C409.768 456.743 409.516 457.098 409.217 457.406C408.919 457.714 408.592 457.989 408.237 458.232C407.808 458.512 407.351 458.75 406.865 458.946C406.389 459.133 405.904 459.291 405.409 459.422C405.335 459.329 405.227 459.217 405.087 459.086C404.957 458.955 404.831 458.839 404.709 458.736C405.344 458.596 405.955 458.409 406.543 458.176C407.131 457.933 407.645 457.653 408.083 457.336C408.503 457.019 408.839 456.659 409.091 456.258C409.343 455.857 409.474 455.413 409.483 454.928H405.633Z" fill="#555555"/>
<path d="M425.169 465.54H424.273V458.498H421.963V457.686H424.273V453.906H425.169V465.54ZM427.647 466.128H426.751V453.696H427.647V466.128ZM420.619 456.37C420.619 457.107 420.675 457.793 420.787 458.428C420.908 459.063 421.095 459.641 421.347 460.164C421.58 460.649 421.869 461.083 422.215 461.466C422.569 461.839 422.98 462.157 423.447 462.418C423.325 462.511 423.199 462.623 423.069 462.754C422.938 462.875 422.821 462.978 422.719 463.062C422.457 462.894 422.196 462.689 421.935 462.446C421.673 462.194 421.426 461.914 421.193 461.606C420.95 461.279 420.735 460.925 420.549 460.542C420.362 460.159 420.217 459.767 420.115 459.366C420.04 459.758 419.909 460.155 419.723 460.556C419.536 460.957 419.312 461.349 419.051 461.732C418.789 462.105 418.505 462.451 418.197 462.768C417.898 463.085 417.59 463.361 417.273 463.594C417.179 463.519 417.049 463.426 416.881 463.314C416.713 463.193 416.559 463.095 416.419 463.02C417.053 462.6 417.585 462.124 418.015 461.592C418.453 461.06 418.803 460.472 419.065 459.828C419.289 459.277 419.447 458.689 419.541 458.064C419.643 457.429 419.695 456.757 419.695 456.048V454.34H420.619V456.37Z" fill="#555555"/>
<path d="M441.008 464.42H429.346V463.664H432.23V460.962H433.14V463.664H437.256V460.962H438.152V463.664H441.008V464.42ZM430.774 457.294C430.774 456.361 431.185 455.577 432.006 454.942C432.827 454.298 433.887 453.976 435.184 453.976C436.491 453.976 437.55 454.298 438.362 454.942C439.183 455.577 439.594 456.361 439.594 457.294C439.594 458.227 439.183 459.016 438.362 459.66C437.541 460.304 436.481 460.626 435.184 460.626C433.887 460.626 432.827 460.309 432.006 459.674C431.185 459.03 430.774 458.237 430.774 457.294ZM431.726 457.294C431.726 458.069 432.053 458.699 432.706 459.184C433.369 459.66 434.195 459.898 435.184 459.898C436.164 459.898 436.985 459.66 437.648 459.184C438.311 458.699 438.642 458.069 438.642 457.294C438.642 456.463 438.311 455.824 437.648 455.376C436.995 454.919 436.173 454.69 435.184 454.69C434.176 454.69 433.345 454.923 432.692 455.39C432.048 455.847 431.726 456.482 431.726 457.294Z" fill="#555555"/>
<path d="M442.778 464.154H444.192V465.582H442.778V464.154Z" fill="#555555"/>
<rect x="173.5" y="253.5" width="109" height="70" rx="3.5" stroke="#7B829E" stroke-opacity="0.58" stroke-width="3"/>
<path d="M306 256H350" stroke="#7B829E" stroke-opacity="0.58" stroke-width="3"/>
<path d="M306 279H325" stroke="#7B829E" stroke-opacity="0.58" stroke-width="3"/>
<path d="M336 279H355" stroke="#7B829E" stroke-opacity="0.58" stroke-width="3"/>
<path d="M366 279H385" stroke="#7B829E" stroke-opacity="0.58" stroke-width="3"/>
<path d="M306 319H385" stroke="#7B829E" stroke-opacity="0.58" stroke-width="3"/>
<path d="M306 298H385" stroke="#7B829E" stroke-opacity="0.58" stroke-width="3"/>
<path d="M185 263.5L267 310" stroke="#7B829E" stroke-opacity="0.58" stroke-width="3"/>
<path d="M267 263.5L185 310" stroke="#7B829E" stroke-opacity="0.58" stroke-width="3"/>
</svg>
